<?xml version="1.0" standalone="no"?>
<!DOCTYPE svg PUBLIC "-//W3C//DTD SVG 20010904//EN"
 "http://www.w3.org/TR/2001/REC-SVG-20010904/DTD/svg10.dtd">
<svg version="1.0" xmlns="http://www.w3.org/2000/svg"
 width="1024.000000pt" height="1536.000000pt" viewBox="0 0 1024.000000 1536.000000"
 preserveAspectRatio="xMidYMid meet">

<g transform="translate(0.000000,1536.000000) scale(0.100000,-0.100000)"
fill="#000000" stroke="none">
<path d="M4274 14515 c-4 -8 1 -34 10 -56 9 -23 15 -44 12 -47 -12 -12 -166
21 -225 48 -71 34 -96 37 -105 14 -13 -33 -5 -124 14 -169 18 -42 18 -46 3
-52 -9 -4 -42 7 -78 25 -68 36 -90 39 -99 16 -11 -29 -6 -60 19 -124 14 -35
25 -72 25 -82 0 -10 6 -18 13 -19 6 0 0 -5 -15 -10 -42 -16 -61 -76 -61 -194
1 -81 5 -115 27 -178 l26 -78 -26 -62 c-36 -85 -81 -216 -105 -312 -26 -99
-25 -191 2 -328 27 -136 26 -246 -2 -387 -27 -141 -30 -329 -6 -471 9 -52 48
-200 87 -327 38 -127 81 -293 95 -369 36 -197 51 -239 104 -296 25 -27 65 -60
88 -74 44 -25 55 -43 28 -43 -25 0 -315 -105 -795 -287 -473 -179 -599 -235
-717 -319 -188 -134 -295 -377 -368 -837 -8 -51 -25 -155 -39 -232 -23 -131
-39 -234 -86 -560 -78 -533 -109 -1019 -80 -1250 16 -129 17 -271 1 -332 -7
-29 -36 -90 -63 -135 -86 -141 -101 -182 -96 -266 4 -61 12 -87 47 -155 22
-45 41 -87 41 -94 0 -7 -18 -26 -40 -44 -72 -58 -98 -153 -69 -250 11 -35 10
-40 -14 -68 -37 -44 -50 -123 -42 -242 6 -78 4 -114 -10 -169 -11 -44 -16 -95
-13 -133 3 -54 9 -71 47 -125 l44 -61 -6 -108 c-4 -60 -9 -317 -12 -573 -8
-722 -16 -909 -55 -1370 -11 -137 -27 -393 -35 -580 -11 -256 -26 -416 -60
-655 -44 -300 -44 -331 -4 -426 80 -192 101 -244 158 -383 69 -170 86 -198
146 -244 65 -49 193 -120 252 -139 51 -16 52 -17 63 -67 13 -65 29 -180 76
-544 l38 -292 1058 0 c582 0 1058 1 1059 3 3 8 30 437 35 564 7 148 16 181 30
105 4 -20 39 -167 79 -327 40 -160 75 -302 79 -318 l6 -27 1174 0 1174 0 4 53
c2 28 5 219 7 422 2 371 6 416 37 490 14 33 17 69 15 201 -1 148 1 173 33 330
60 291 82 438 96 634 7 111 15 151 40 224 27 76 39 96 80 133 47 42 62 70 104
198 9 28 16 78 16 112 0 52 7 77 41 150 22 49 74 171 116 273 41 102 98 237
125 300 227 524 410 1040 469 1323 l23 109 68 34 c88 44 97 62 108 217 7 109
25 195 70 347 25 84 10 178 -36 227 -19 20 -34 44 -34 55 0 10 16 49 35 86 49
91 69 164 61 221 -3 25 -30 95 -59 156 -64 136 -65 156 -9 325 54 165 57 201
33 408 -30 246 -30 663 -1 841 47 286 42 535 -16 889 -57 347 -152 716 -241
932 -66 161 -185 314 -308 397 -123 82 -451 260 -810 439 -381 189 -721 365
-835 434 -36 21 -82 46 -102 56 -34 16 -40 26 -83 135 -57 145 -109 219 -179
254 -27 14 -60 25 -72 25 -27 0 -34 31 -27 120 5 67 12 82 88 200 23 36 52 85
64 109 12 23 48 71 80 105 65 69 102 123 153 216 60 109 108 270 108 363 0 30
9 65 24 95 55 108 108 267 135 402 6 30 14 66 16 80 16 77 26 260 21 358 -16
278 -130 519 -281 598 -40 21 -57 36 -61 54 -23 118 -78 210 -155 262 -73 49
-86 32 -49 -63 12 -28 19 -54 16 -57 -3 -2 -22 9 -43 26 -180 142 -506 219
-968 227 -163 3 -245 0 -315 -11 -174 -28 -237 -29 -321 -5 -89 25 -108 26
-115 6z m-201 -645 c31 -11 74 -20 96 -20 22 0 66 -7 98 -15 58 -15 158 -20
187 -9 10 4 16 18 16 35 0 16 2 29 5 29 3 0 29 -12 57 -26 46 -24 60 -26 123
-20 38 3 91 9 116 14 27 5 56 5 70 -1 13 -5 62 -6 109 -3 99 6 267 -16 350
-46 78 -29 133 -87 156 -163 16 -55 16 -75 5 -230 -8 -114 -9 -179 -2 -195 5
-14 39 -60 74 -102 111 -132 130 -206 131 -513 1 -201 3 -230 17 -233 27 -5
92 79 159 207 73 140 133 210 214 247 134 63 230 1 274 -176 32 -125 7 -267
-75 -435 -78 -158 -204 -305 -308 -356 -55 -27 -71 -30 -127 -27 -34 2 -70 7
-78 11 -11 5 -22 -10 -44 -66 -15 -39 -50 -118 -77 -174 -78 -159 -170 -237
-484 -408 -245 -134 -351 -177 -562 -230 -128 -31 -239 -33 -338 -5 -38 11
-79 20 -89 20 -38 0 -143 80 -169 129 -25 46 -30 65 -67 259 -20 104 -55 235
-111 412 -90 283 -109 507 -64 740 29 151 31 253 6 376 -31 149 -31 166 -1
181 55 29 207 -17 271 -83 43 -45 53 -43 45 7 -13 82 -78 174 -147 210 -43 21
-128 26 -161 8 -18 -10 -20 -9 -14 7 4 11 10 33 13 49 8 45 61 199 103 296 29
69 158 319 164 319 1 0 27 -9 59 -20z m1717 -2057 c72 -12 65 20 65 -295 1
-170 6 -318 13 -371 12 -81 11 -91 -4 -115 -10 -15 -82 -93 -162 -174 -152
-155 -259 -238 -467 -362 -280 -166 -273 -159 -331 -326 -51 -147 -98 -241
-147 -296 l-42 -46 -46 79 c-55 93 -84 168 -94 243 -16 127 -46 234 -83 305
-29 53 -41 89 -46 137 -9 77 -45 227 -69 280 l-16 36 62 7 c111 12 365 85 477
137 122 57 356 183 450 244 73 46 172 124 207 163 29 33 110 192 149 293 22
59 33 76 44 72 8 -4 26 -9 40 -11z m-1390 -1150 c6 -32 13 -67 16 -78 3 -12
-1 -9 -12 9 -9 16 -16 44 -16 64 0 22 -3 30 -8 22 -5 -8 -8 -4 -7 13 3 44 15
31 27 -30z m2681 -4730 c49 -37 51 -40 46 -78 -4 -32 -17 -52 -61 -98 l-56
-59 0 84 c0 83 9 188 17 188 2 0 26 -17 54 -37z m-5145 -583 c33 -16 104 -41
159 -56 87 -24 119 -28 250 -28 146 -1 157 1 291 39 20 6 20 4 12 -67 -5 -40
-16 -99 -24 -131 -8 -31 -39 -162 -68 -290 -30 -127 -77 -329 -104 -447 -72
-304 -80 -355 -81 -507 l-2 -135 -70 -110 c-170 -266 -217 -413 -173 -540 15
-45 14 -50 -10 -127 -37 -116 -49 -199 -48 -341 0 -228 37 -459 111 -700 l39
-125 6 -270 c6 -267 6 -271 -17 -315 -25 -51 -60 -63 -103 -35 -36 23 -52 69
-69 193 -22 156 -52 303 -86 417 -16 55 -35 147 -43 204 -15 108 -26 140 -26
78 0 -66 22 -191 46 -266 27 -84 30 -107 8 -71 -15 25 -15 25 -9 -10 4 -19 9
-44 13 -55 5 -18 6 -18 12 5 6 27 24 -58 60 -298 20 -136 34 -176 72 -212 26
-24 77 -26 119 -5 16 9 35 13 41 9 6 -4 8 -3 4 4 -3 6 -2 13 3 16 5 3 14 -38
20 -92 7 -53 15 -114 18 -134 l6 -38 -54 16 c-30 9 -61 21 -69 28 -8 6 -35 22
-60 35 -94 50 -157 101 -183 149 -14 26 -46 101 -72 167 -26 66 -76 188 -111
272 -61 144 -64 155 -64 231 0 45 11 157 26 249 34 225 51 405 58 603 3 91 8
194 11 230 3 36 14 191 25 345 11 154 28 363 36 465 14 159 29 891 33 1568 1
61 3 112 4 112 2 0 30 -13 63 -30z m5192 -389 c163 -83 499 -127 765 -102 122
12 347 55 381 73 15 8 18 7 14 -3 -3 -8 -11 -39 -18 -69 -37 -161 -55 -227
-95 -350 -79 -245 -226 -631 -359 -942 -42 -98 -76 -181 -76 -184 0 -4 -15
-41 -34 -83 -19 -42 -69 -160 -111 -263 -43 -104 -81 -188 -86 -188 -5 0 -30
20 -55 44 -72 69 -162 93 -226 60 -35 -18 -88 -35 -88 -28 0 2 15 10 33 17 32
14 32 14 -19 9 -60 -5 -100 6 -209 60 -87 43 -178 109 -202 145 -14 21 -13 28
5 71 27 61 119 424 171 667 50 239 159 964 161 1073 0 16 4 15 48 -7z m254
-2037 c39 -20 35 -26 -7 -8 -53 22 -115 18 -170 -12 -34 -17 -51 -22 -58 -15
-8 8 -7 11 4 11 7 1 37 12 64 25 55 27 114 26 167 -1z m-744 -68 c45 -62 231
-177 323 -199 22 -6 27 -14 32 -48 7 -55 32 -79 130 -125 72 -34 91 -39 154
-39 68 0 72 -1 66 -20 -7 -22 -88 -224 -158 -389 -25 -60 -59 -152 -75 -205
-17 -53 -34 -102 -39 -110 -7 -10 -26 21 -70 110 -33 68 -101 196 -151 284
-188 333 -290 554 -290 632 0 41 29 153 40 153 3 0 21 -20 38 -44z m772 16
c42 -31 62 -80 57 -144 -6 -102 -83 -192 -187 -219 -57 -15 -93 0 -128 51 -21
30 -23 44 -19 101 5 73 34 143 77 184 57 55 146 66 200 27z m31 11 c13 -16 12
-17 -3 -4 -10 7 -18 15 -18 17 0 8 8 3 21 -13z m-258 -35 c-17 -18 -38 -47
-47 -64 -18 -37 -35 -133 -30 -172 l4 -27 -9 28 c-19 57 14 180 63 231 18 20
37 36 42 36 4 0 -6 -15 -23 -32z m-83 -103 c0 -8 -4 -15 -10 -15 -5 0 -7 7 -4
15 4 8 8 15 10 15 2 0 4 -7 4 -15z"/>
<path d="M4625 13205 c-102 -18 -199 -61 -235 -101 -30 -35 -35 -50 -24 -78 8
-21 25 -20 115 4 273 75 399 67 609 -38 63 -31 118 -58 123 -60 14 -7 7 29
-14 71 -26 50 -116 140 -168 166 -96 50 -257 64 -406 36z"/>
<path d="M3910 12928 c8 -8 36 -23 63 -32 29 -11 57 -31 74 -52 14 -19 28 -32
31 -30 3 3 -7 21 -21 40 -25 32 -81 66 -137 81 -22 6 -23 5 -10 -7z"/>
<path d="M4076 12910 c19 -101 20 -125 12 -172 -14 -81 -19 -88 -32 -43 -17
57 -80 100 -144 97 -70 -3 -115 -43 -98 -88 5 -12 10 -13 27 -3 49 26 175 5
207 -34 24 -29 -13 -101 -147 -287 -52 -71 -55 -88 -31 -153 18 -48 115 -176
141 -185 21 -8 6 20 -36 68 -49 55 -95 137 -95 170 0 28 19 64 82 152 29 40
73 116 98 168 43 90 45 99 44 180 0 57 -6 97 -17 120 -12 26 -15 29 -11 10z"/>
<path d="M4680 12900 c-41 -7 -76 -25 -107 -53 -38 -34 -26 -42 12 -8 19 16
53 35 76 41 45 12 132 5 193 -17 50 -17 60 -8 13 12 -48 20 -142 32 -187 25z"/>
<path d="M4634 12770 c-36 -11 -67 -43 -69 -70 -1 -18 3 -19 39 -12 23 4 102
7 176 7 121 -1 143 -4 209 -28 41 -14 76 -25 78 -23 18 18 -56 76 -138 108
-61 24 -241 35 -295 18z"/>
<path d="M6125 12694 c-60 -40 -82 -63 -127 -129 -66 -95 -81 -139 -79 -221 2
-63 -2 -80 -28 -133 -53 -104 -37 -124 59 -76 128 65 192 200 146 309 -15 35
-50 66 -76 66 -8 0 -1 -9 17 -21 79 -51 69 -201 -19 -286 -41 -39 -125 -86
-139 -78 -6 4 4 29 23 63 29 49 34 69 39 147 3 51 13 105 22 125 34 73 64 115
84 118 12 2 24 10 27 19 5 13 4 14 -9 3 -28 -23 -26 -4 2 25 41 41 99 75 128
75 21 0 27 -7 37 -45 14 -54 33 -60 25 -9 -13 76 -63 94 -132 48z"/>
<path d="M5720 12305 c-30 -30 -49 -55 -44 -55 11 0 104 94 104 105 0 10 -6 5
-60 -50z"/>
<path d="M4084 12193 c11 -11 89 -33 96 -27 11 11 -35 34 -69 34 -19 0 -31 -3
-27 -7z"/>
<path d="M4005 12009 c-4 -6 -5 -12 -2 -15 2 -3 7 2 10 11 7 17 1 20 -8 4z"/>
<path d="M4735 11910 c-49 -10 -166 -24 -260 -30 -351 -22 -488 -29 -497 -24
-4 3 -9 20 -9 37 -1 24 -3 26 -6 10 -2 -13 -11 -23 -19 -23 -34 0 -4 -139 46
-208 71 -98 164 -123 383 -104 261 22 442 101 523 228 75 117 24 152 -161 114z
m141 -34 c20 -107 -99 -209 -298 -256 -234 -55 -437 -49 -523 15 -37 28 -81
106 -90 162 l-6 41 58 -2 c138 -6 651 34 753 58 90 22 98 21 106 -18z"/>
<path d="M4690 11744 c0 -9 5 -14 12 -12 18 6 21 28 4 28 -9 0 -16 -7 -16 -16z"/>
<path d="M4530 11706 c0 -21 21 -31 31 -15 14 22 11 29 -11 29 -11 0 -20 -6
-20 -14z"/>
<path d="M4130 11440 c14 -11 45 -29 70 -41 38 -18 55 -20 115 -15 99 9 101
23 3 22 -65 -1 -93 4 -128 20 -72 34 -90 38 -60 14z"/>
<path d="M4815 10995 c-21 -5 -134 -36 -217 -59 -47 -14 -113 -28 -147 -32
-34 -3 -61 -11 -61 -16 0 -6 7 -31 15 -57 9 -25 20 -66 26 -90 7 -29 13 -40
19 -31 4 7 13 10 19 6 14 -9 79 33 150 97 56 51 156 133 196 161 20 14 20 26
0 21z"/>
<path d="M1890 1721 c0 -17 12 -41 20 -41 10 0 1 38 -11 46 -5 3 -9 1 -9 -5z"/>
<path d="M2106 1324 c-22 -21 -20 -27 5 -13 12 6 42 15 68 19 l46 8 -52 1
c-35 1 -57 -4 -67 -15z"/>
<path d="M6698 2663 c7 -3 16 -2 19 1 4 3 -2 6 -13 5 -11 0 -14 -3 -6 -6z"/>
<path d="M7168 2433 c6 -2 18 -2 25 0 6 3 1 5 -13 5 -14 0 -19 -2 -12 -5z"/>
<path d="M7208 2383 c7 -3 16 -2 19 1 4 3 -2 6 -13 5 -11 0 -14 -3 -6 -6z"/>
<path d="M7294 2772 c-42 -35 -35 -102 11 -102 17 0 39 73 30 100 -8 24 -14
24 -41 2z m23 -52 c-11 -40 -29 -49 -35 -17 -2 10 3 17 12 17 9 0 16 7 16 16
0 14 -2 15 -17 3 -15 -11 -15 -10 1 8 26 31 35 21 23 -27z"/>
</g>
</svg>
